<svg width="24" height="24" viewBox="0 0 24 24" fill="none" xmlns="http://www.w3.org/2000/svg">
<path d="M21 22H3C2.59 22 2.25 21.66 2.25 21.25C2.25 20.84 2.59 20.5 3 20.5H21C21.41 20.5 21.75 20.84 21.75 21.25C21.75 21.66 21.41 22 21 22Z" fill="white"/>
<path d="M19.0196 3.48016C17.0796 1.54016 15.1796 1.49016 13.1896 3.48016L11.9796 4.69016C11.8796 4.79016 11.8396 4.95016 11.8796 5.09016C12.6396 7.74016 14.7596 9.86016 17.4096 10.6202C17.4496 10.6302 17.4896 10.6402 17.5296 10.6402C17.6396 10.6402 17.7396 10.6002 17.8196 10.5202L19.0196 9.31016C20.0096 8.33016 20.4896 7.38016 20.4896 6.42016C20.4996 5.43016 20.0196 4.47016 19.0196 3.48016Z" fill="white"/>
<path d="M15.6103 11.5303C15.3203 11.3903 15.0403 11.2503 14.7703 11.0903C14.5503 10.9603 14.3403 10.8203 14.1303 10.6703C13.9603 10.5603 13.7603 10.4003 13.5703 10.2403C13.5503 10.2303 13.4803 10.1703 13.4003 10.0903C13.0703 9.81029 12.7003 9.45029 12.3703 9.05029C12.3403 9.03029 12.2903 8.96029 12.2203 8.87029C12.1203 8.75029 11.9503 8.55029 11.8003 8.32029C11.6803 8.17029 11.5403 7.95029 11.4103 7.73029C11.2503 7.46029 11.1103 7.19029 10.9703 6.91029C10.9491 6.8649 10.9286 6.81973 10.9088 6.77483C10.7612 6.44151 10.3265 6.34407 10.0688 6.60182L4.34032 12.3303C4.21032 12.4603 4.09032 12.7103 4.06032 12.8803L3.52032 16.7103C3.42032 17.3903 3.61032 18.0303 4.03032 18.4603C4.39032 18.8103 4.89032 19.0003 5.43032 19.0003C5.55032 19.0003 5.67032 18.9903 5.79032 18.9703L9.63032 18.4303C9.81032 18.4003 10.0603 18.2803 10.1803 18.1503L15.9016 12.429C16.1612 12.1694 16.0633 11.724 15.7257 11.5799C15.6877 11.5637 15.6492 11.5472 15.6103 11.5303Z" fill="white"/>
</svg>
