<svg width="24" height="24" viewBox="0 0 24 24" fill="none" xmlns="http://www.w3.org/2000/svg">
<path d="M17 3H7C4 3 2 4.5 2 8V15.96C2 18.25 3.85 20.1 6.14 20.1H12.4C12.98 20.1 13.48 19.61 13.42 19.03C13.28 17.5 13.78 15.85 15.14 14.52C15.7 13.97 16.39 13.55 17.14 13.31C18.39 12.91 19.6 12.96 20.67 13.33C21.32 13.55 22 13.08 22 12.39V8C22 4.5 20 3 17 3ZM17.47 8.59L14.34 11.09C13.68 11.62 12.84 11.88 12 11.88C11.16 11.88 10.31 11.62 9.66 11.09L6.53 8.59C6.21 8.33 6.16 7.86 6.41 7.53C6.67 7.21 7.14 7.15 7.46 7.41L10.59 9.91C11.35 10.52 12.64 10.52 13.4 9.91L16.53 7.41C16.85 7.15 17.33 7.2 17.58 7.53C17.84 7.86 17.79 8.33 17.47 8.59Z" fill="white"/>
<path d="M22.65 21.4504L21.9 20.7004C22.29 20.1104 22.52 19.4004 22.52 18.6404C22.52 16.5604 20.84 14.8804 18.76 14.8804C16.68 14.8804 15 16.5604 15 18.6304C15 20.7004 16.68 22.3904 18.76 22.3904C19.52 22.3904 20.23 22.1604 20.82 21.7704L21.57 22.5204C21.72 22.6704 21.91 22.7404 22.11 22.7404C22.31 22.7404 22.5 22.6704 22.65 22.5204C22.95 22.2304 22.95 21.7504 22.65 21.4504Z" fill="white"/>
</svg>
