<svg width="48" height="48" viewBox="0 0 48 48" fill="none" xmlns="http://www.w3.org/2000/svg">
<path d="M37.3804 23.0596C36.2404 22.7596 34.9004 22.5996 33.3004 22.5996C31.0804 22.5996 30.2604 23.1396 29.1204 23.9996C29.0604 24.0396 29.0004 24.0996 28.9404 24.1596L27.0404 26.1796C25.4404 27.8596 22.5604 27.8796 20.9604 26.1596L19.0604 24.1596C19.0003 24.0996 18.9404 24.0396 18.8804 23.9996C17.7403 23.1396 16.9204 22.5996 14.7004 22.5996C13.1004 22.5996 11.7604 22.7596 10.6204 23.0596C5.86035 24.3396 5.86035 28.1196 5.86035 31.4396V33.2996C5.86035 38.3196 5.86035 43.9996 16.5604 43.9996H31.4404C38.5404 43.9996 42.1404 40.3996 42.1404 33.2996V31.4396C42.1404 28.1196 42.1404 24.3396 37.3804 23.0596ZM28.6604 36.7996H19.3404C18.5804 36.7996 17.9604 36.1796 17.9604 35.3996C17.9604 34.6196 18.5804 33.9996 19.3404 33.9996H28.6604C29.4204 33.9996 30.0404 34.6196 30.0404 35.3996C30.0404 36.1796 29.4204 36.7996 28.6604 36.7996Z" fill="#88CB1A"/>
<path d="M25.3402 5.34C25.3402 4.6 24.7402 4 24.0002 4C23.2602 4 22.6602 4.6 22.6602 5.34V8H25.3602V5.34H25.3402Z" fill="#88CB1A"/>
<path d="M38.4201 16.84V20.24C38.3401 20.2 38.2401 20.18 38.1601 20.16H38.1401C36.7201 19.78 35.1401 19.6 33.3001 19.6C30.2201 19.6 28.7601 20.5 27.4401 21.5C27.1601 21.7 26.9601 21.9 26.7601 22.1L24.8601 24.12C24.6601 24.32 24.3401 24.44 24.0001 24.44C23.8401 24.44 23.4401 24.42 23.1401 24.1L21.1801 22.04C20.9801 21.82 20.7401 21.64 20.6801 21.6C19.2401 20.5 17.7801 19.6 14.7001 19.6C12.8601 19.6 11.2801 19.78 9.84008 20.16C9.76008 20.18 9.66008 20.2 9.58008 20.24V16.84C9.58008 12.7 9.58008 8 18.4201 8H22.6601V14.9L21.3601 13.6C20.8201 13.06 19.9801 13.06 19.4401 13.6C18.9201 14.12 18.9201 14.98 19.4401 15.5L23.0401 19.1C23.0601 19.12 23.0801 19.12 23.0801 19.14C23.2001 19.24 23.3401 19.34 23.4801 19.4C23.6601 19.46 23.8201 19.5 24.0001 19.5C24.1801 19.5 24.3401 19.46 24.5201 19.4C24.6801 19.34 24.8201 19.24 24.9601 19.1L28.5601 15.5C29.0801 14.98 29.0801 14.12 28.5601 13.6C28.0201 13.06 27.1801 13.06 26.6401 13.6L25.3401 14.9V8H29.5801C38.4201 8 38.4201 12.7 38.4201 16.84Z" fill="#88CB1A"/>
</svg>
