<svg width="48" height="48" viewBox="0 0 48 48" fill="none" xmlns="http://www.w3.org/2000/svg">
<path d="M44 9.70035V33.4804C44 35.4204 42.42 37.2003 40.48 37.4403L39.86 37.5204C36.58 37.9604 31.96 39.3204 28.24 40.8804C26.94 41.4204 25.5 40.4403 25.5 39.0204V11.2004C25.5 10.4604 25.92 9.78035 26.58 9.42035C30.24 7.44035 35.78 5.68035 39.54 5.36035H39.66C42.06 5.36035 44 7.30035 44 9.70035Z" fill="#FFB904"/>
<path d="M21.4205 9.42035C17.7605 7.44035 12.2205 5.68035 8.46047 5.36035H8.32047C5.92047 5.36035 3.98047 7.30035 3.98047 9.70035V33.4804C3.98047 35.4204 5.56047 37.2003 7.50047 37.4403L8.12047 37.5204C11.4005 37.9604 16.0205 39.3204 19.7405 40.8804C21.0405 41.4204 22.4805 40.4403 22.4805 39.0204V11.2004C22.4805 10.4404 22.0805 9.78035 21.4205 9.42035ZM10.0005 15.4804H14.5005C15.3205 15.4804 16.0005 16.1604 16.0005 16.9804C16.0005 17.8204 15.3205 18.4804 14.5005 18.4804H10.0005C9.18047 18.4804 8.50047 17.8204 8.50047 16.9804C8.50047 16.1604 9.18047 15.4804 10.0005 15.4804ZM16.0005 24.4804H10.0005C9.18047 24.4804 8.50047 23.8204 8.50047 22.9804C8.50047 22.1604 9.18047 21.4804 10.0005 21.4804H16.0005C16.8205 21.4804 17.5005 22.1604 17.5005 22.9804C17.5005 23.8204 16.8205 24.4804 16.0005 24.4804Z" fill="#FFB904"/>
</svg>
