<svg width="48" height="48" viewBox="0 0 48 48" fill="none" xmlns="http://www.w3.org/2000/svg">
<path d="M37.3804 23.0596C36.2404 22.7596 34.9004 22.5996 33.3004 22.5996C31.0804 22.5996 30.2604 23.1396 29.1204 23.9996C29.0604 24.0396 29.0004 24.0996 28.9404 24.1596L27.0404 26.1796C25.4404 27.8596 22.5604 27.8796 20.9604 26.1596L19.0604 24.1596C19.0003 24.0996 18.9404 24.0396 18.8804 23.9996C17.7403 23.1396 16.9204 22.5996 14.7004 22.5996C13.1004 22.5996 11.7604 22.7596 10.6204 23.0596C5.86035 24.3396 5.86035 28.1196 5.86035 31.4396V33.2996C5.86035 38.3196 5.86035 43.9996 16.5604 43.9996H31.4404C38.5404 43.9996 42.1404 40.3996 42.1404 33.2996V31.4396C42.1404 28.1196 42.1404 24.3396 37.3804 23.0596ZM28.6604 36.7996H19.3404C18.5804 36.7996 17.9604 36.1796 17.9604 35.3996C17.9604 34.6196 18.5804 33.9996 19.3404 33.9996H28.6604C29.4204 33.9996 30.0404 34.6196 30.0404 35.3996C30.0404 36.1796 29.4204 36.7996 28.6604 36.7996Z" fill="#D23535"/>
<path d="M25.3398 8.6L26.6398 9.9C27.1598 10.42 28.0198 10.42 28.5398 9.9C29.0598 9.38 29.0598 8.52 28.5398 8L24.9398 4.4C24.8198 4.28 24.6598 4.18 24.4998 4.1C24.3398 4.04 24.1798 4 23.9998 4C23.8198 4 23.6598 4.04 23.4798 4.1C23.3198 4.16 23.1998 4.26 23.0798 4.36C23.0598 4.38 23.0598 4.38 23.0398 4.38L19.4398 8C18.9198 8.52 18.9198 9.38 19.4398 9.9C19.9598 10.42 20.8198 10.42 21.3398 9.9L22.6398 8.6V12H25.3398V8.6Z" fill="#D23535"/>
<path d="M38.4201 20.24C38.3401 20.2 38.2401 20.18 38.1601 20.16H38.1401C36.7201 19.78 35.1401 19.6 33.3001 19.6C30.2201 19.6 28.7601 20.5 27.4401 21.5C27.1601 21.7 26.9601 21.9 26.7601 22.1L24.8601 24.12C24.6601 24.32 24.3401 24.44 24.0001 24.44C23.8801 24.44 23.4401 24.42 23.1401 24.1L21.1801 22.04C20.9801 21.82 20.7401 21.64 20.6801 21.6C19.2401 20.5 17.7801 19.6 14.7001 19.6C12.8601 19.6 11.2801 19.78 9.84008 20.16C9.76008 20.18 9.66008 20.2 9.58008 20.24C9.60008 16.26 10.0001 12 18.4201 12H22.6601V18.16C22.6601 18.9 23.2601 19.5 24.0001 19.5C24.7401 19.5 25.3401 18.9 25.3401 18.16V12H29.5801C38.0001 12 38.4001 16.26 38.4201 20.24Z" fill="#D23535"/>
</svg>
